<svg width="474" height="361" viewBox="0 0 474 361" fill="none" xmlns="http://www.w3.org/2000/svg">
<rect width="474" height="361" fill="white"/>
<rect width="474" height="257" rx="10" fill="#8BB5AD"/>
<rect x="229" y="257" width="10" height="92" fill="#2D6057"/>
<rect x="121" y="349" width="220" height="10" fill="#2D6057"/>
<path d="M234 148C245.03 148 254 139.03 254 128C254 116.97 245.03 108 234 108C222.97 108 214 116.97 214 128C214 139.03 222.97 148 234 148ZM234 118C239.42 118 244 122.58 244 128C244 133.42 239.42 138 234 138C228.58 138 224 133.42 224 128C224 122.58 228.58 118 234 118Z" fill="#53847B"/>
<path d="M188.225 148.68L193.225 157.33C195.88 161.915 202.27 163.635 206.875 160.98L209.52 159.45C212.413 161.725 215.602 163.596 219 165.01V168C219 173.515 223.485 178 229 178H239C244.515 178 249 173.515 249 168V165.01C252.397 163.596 255.586 161.727 258.48 159.455L261.125 160.985C265.74 163.635 272.115 161.925 274.78 157.33L279.775 148.685C281.1 146.388 281.459 143.66 280.774 141.099C280.089 138.537 278.415 136.353 276.12 135.025L273.595 133.565C274.132 129.878 274.132 126.132 273.595 122.445L276.12 120.985C278.414 119.656 280.087 117.472 280.772 114.911C281.457 112.35 281.099 109.622 279.775 107.325L274.78 98.68C272.125 94.08 265.74 92.355 261.125 95.02L258.48 96.55C255.587 94.2745 252.398 92.404 249 90.99V88C249 82.485 244.515 78 239 78H229C223.485 78 219 82.485 219 88V90.99C215.603 92.4042 212.414 94.2729 209.52 96.545L206.875 95.015C202.255 92.36 195.875 94.08 193.22 98.675L188.225 107.32C186.9 109.616 186.541 112.345 187.226 114.906C187.911 117.468 189.585 119.652 191.88 120.98L194.405 122.44C193.866 126.125 193.866 129.87 194.405 133.555L191.88 135.015C189.586 136.345 187.913 138.53 187.227 141.092C186.542 143.654 186.901 146.382 188.225 148.68ZM204.855 134.89C204.29 132.637 204.003 130.323 204 128C204 125.69 204.29 123.37 204.85 121.11C205.114 120.057 205.027 118.946 204.603 117.946C204.179 116.947 203.441 116.112 202.5 115.57L196.885 112.32L201.875 103.675L207.6 106.985C208.534 107.525 209.617 107.748 210.688 107.62C211.759 107.492 212.76 107.02 213.54 106.275C216.923 103.058 221.002 100.664 225.46 99.28C226.484 98.9673 227.381 98.3341 228.018 97.4736C228.655 96.6131 229 95.5708 229 94.5V88H239V94.5C239 95.5708 239.345 96.6131 239.982 97.4736C240.619 98.3341 241.516 98.9673 242.54 99.28C246.997 100.666 251.076 103.06 254.46 106.275C255.241 107.019 256.241 107.49 257.312 107.618C258.383 107.746 259.466 107.524 260.4 106.985L266.12 103.68L271.12 112.325L265.5 115.57C264.56 116.113 263.822 116.947 263.398 117.947C262.974 118.946 262.887 120.057 263.15 121.11C263.71 123.37 264 125.69 264 128C264 130.305 263.71 132.625 263.145 134.89C262.883 135.944 262.97 137.055 263.395 138.054C263.82 139.054 264.559 139.888 265.5 140.43L271.115 143.675L266.125 152.32L260.4 149.015C259.467 148.474 258.383 148.251 257.312 148.379C256.24 148.507 255.24 148.979 254.46 149.725C251.077 152.942 246.998 155.336 242.54 156.72C241.516 157.033 240.619 157.666 239.982 158.526C239.345 159.387 239 160.429 239 161.5L239.01 168H229V161.5C229 160.429 228.655 159.387 228.018 158.526C227.381 157.666 226.484 157.033 225.46 156.72C221.003 155.334 216.924 152.94 213.54 149.725C212.762 148.977 211.76 148.504 210.688 148.376C209.616 148.249 208.532 148.475 207.6 149.02L201.88 152.33L196.88 143.685L202.5 140.43C203.441 139.888 204.18 139.054 204.605 138.054C205.03 137.055 205.117 135.944 204.855 134.89Z" fill="#2D6057"/>
<g clip-path="url(#clip0_2_11)">
<path d="M398.806 243.191C400.87 241.968 403.535 242.649 404.758 244.713L427.521 283.125H468.988C471.434 283.125 473.417 285.108 473.417 287.554V300.5C473.417 321.285 462.469 339.512 446.024 349.729H463.281C465.68 349.729 467.625 351.674 467.625 354.073C467.625 356.472 465.68 358.417 463.281 358.417H367.719C365.32 358.417 363.375 356.472 363.375 354.073C363.375 351.674 365.32 349.729 367.719 349.729H384.975C368.531 339.512 357.583 321.285 357.583 300.5V287.554C357.583 285.108 359.566 283.125 362.012 283.125H394.256L374.117 249.142C372.894 247.078 373.576 244.414 375.64 243.191C377.704 241.968 380.368 242.649 381.591 244.713L404.354 283.125H417.422L397.284 249.142C396.061 247.078 396.743 244.414 398.806 243.191ZM366.271 291.813V300.5C366.271 302.46 366.385 304.392 366.608 306.292H464.392C464.614 304.392 464.729 302.46 464.729 300.5V291.813H366.271ZM368.435 314.979C374.618 335.102 393.351 349.729 415.5 349.729C437.65 349.729 456.382 335.102 462.565 314.979H368.435Z" fill="#53847B"/>
</g>
<path d="M142.667 48L61.9167 129L142.667 210" stroke="#2D6057" stroke-width="2" stroke-linecap="round" stroke-linejoin="round"/>
<path d="M330.333 210L411.083 129L330.333 48" stroke="#2D6057" stroke-width="2" stroke-linecap="round" stroke-linejoin="round"/>
<defs>
<clipPath id="clip0_2_11">
<rect width="117" height="117" fill="white" transform="translate(357 242)"/>
</clipPath>
</defs>
</svg>
