<svg aria-hidden="true" style="position: absolute; width: 0; height: 0; overflow: hidden;" version="1.1" xmlns="http://www.w3.org/2000/svg" xmlns:xlink="http://www.w3.org/1999/xlink">
  <defs>
    <symbol id="copy" viewBox="0 0 64 64">
      <path d="M44.697 36.069l6.337-6.337c4.623-4.622 4.623-12.143 0-16.765-4.622-4.623-12.143-4.623-16.765 0l-9.145 9.145c-4.622 4.622-4.622 12.143 0 16.765 0.683 0.683 1.43 1.262 2.22 1.743l4.895-4.896c-0.933-0.223-1.817-0.694-2.543-1.419-2.101-2.101-2.101-5.52 0-7.62l9.145-9.145c2.101-2.101 5.52-2.101 7.62 0s2.101 5.52 0 7.62l-2.687 2.687c1.107 2.605 1.413 5.471 0.922 8.223z"></path>
      <path d="M19.303 27.931l-6.337 6.337c-4.623 4.622-4.623 12.143 0 16.765 4.622 4.623 12.143 4.623 16.765 0l9.144-9.145c4.623-4.622 4.622-12.143 0-16.765-0.682-0.683-1.429-1.262-2.22-1.743l-4.895 4.896c0.932 0.224 1.816 0.693 2.543 1.419 2.101 2.101 2.101 5.519 0 7.621l-9.145 9.145c-2.101 2.101-5.52 2.101-7.62 0s-2.101-5.52 0-7.62l2.687-2.687c-1.108-2.605-1.413-5.471-0.922-8.223z"></path>
    </symbol>
    <symbol id="email" viewBox="0 0 64 64">
      <path d="M32 35.077l18.462-16h-36.924zM27.013 33.307l4.987 4.091 4.909-4.093 13.553 11.617h-36.924zM12.307 43.693v-23.386l13.539 11.693zM51.693 43.693v-23.386l-13.539 11.693z"></path>
    </symbol>
    <symbol id="evernote" viewBox="0 0 64 64">
      <path d="M47.093 19.16c-0.296-1.572-1.239-2.346-2.090-2.651-0.919-0.329-2.783-0.671-5.125-0.944-1.884-0.221-4.099-0.202-5.437-0.162-0.161-1.090-0.932-2.087-1.794-2.431-2.299-0.917-5.853-0.696-6.765-0.443-0.724 0.201-1.527 0.613-1.974 1.247-0.3 0.424-0.493 0.967-0.494 1.725 0 0.429 0.012 1.441 0.023 2.339 0.011 0.901 0.023 1.708 0.023 1.713-0 0.802-0.656 1.455-1.469 1.456h-3.728c-0.796 0-1.403 0.133-1.867 0.342s-0.794 0.492-1.044 0.826c-0.498 0.662-0.585 1.481-0.583 2.315 0 0 0.008 0.682 0.173 2.002 0.138 1.021 1.255 8.158 2.317 10.328 0.411 0.845 0.685 1.196 1.494 1.568 1.801 0.764 5.915 1.615 7.843 1.859 1.924 0.244 3.133 0.757 3.852-0.74 0.003-0.004 0.145-0.372 0.339-0.913 0.625-1.878 0.712-3.544 0.712-4.75 0-0.123 0.181-0.128 0.181 0 0 0.851-0.164 3.864 2.131 4.672 0.906 0.319 2.785 0.602 4.695 0.825 1.727 0.197 2.98 0.871 2.98 5.264 0 2.672-0.566 3.039-3.525 3.039-2.399 0-3.313 0.062-3.313-1.828 0-1.527 1.524-1.367 2.653-1.367 0.504 0 0.138-0.372 0.138-1.314 0-0.937 0.591-1.479 0.032-1.493-3.905-0.107-6.201-0.005-6.201 4.837 0 4.396 1.696 5.212 7.238 5.212 4.345 0 5.876-0.141 7.67-5.66 0.355-1.090 1.213-4.415 1.733-9.998 0.328-3.531-0.31-14.186-0.816-16.875v0zM39.52 30.936c-0.537-0.019-1.053 0.015-1.534 0.092 0.135-1.084 0.587-2.416 2.187-2.361 1.771 0.061 2.020 1.721 2.026 2.845-0.747-0.331-1.672-0.541-2.679-0.576v0zM18.088 19.935h3.73c0.213 0 0.386-0.173 0.386-0.383 0-0.002-0.045-3.169-0.045-4.050v-0.011c0-0.723 0.153-1.355 0.42-1.883l0.127-0.237c-0.014 0.002-0.029 0.010-0.043 0.023l-7.243 7.122c-0.014 0.012-0.023 0.027-0.027 0.042 0.15-0.074 0.354-0.174 0.384-0.186 0.631-0.283 1.396-0.437 2.311-0.437v0z"></path>
    </symbol>
    <symbol id="facebook" viewBox="0 0 64 64">
      <path d="M27.397 53.72v-19.723h-6.647v-8.052h6.647v-6.762c0-4.918 3.987-8.904 8.904-8.904h6.949v7.24h-4.972c-1.563 0-2.829 1.267-2.829 2.829v5.597h7.677l-1.061 8.052h-6.616v19.723z"></path>
    </symbol>
    <symbol id="linkedin" viewBox="0 0 64 64">
      <path d="M14.537 25.873h7.435v23.896h-7.434v-23.896zM18.257 13.995c2.375 0 4.305 1.929 4.305 4.306s-1.929 4.307-4.305 4.307c-0.001 0-0.002 0-0.003 0-2.378 0-4.305-1.927-4.305-4.305 0-0.001 0-0.001 0-0.002v0c0-0 0-0.001 0-0.002 0-2.378 1.927-4.305 4.305-4.305 0.001 0 0.002 0 0.004 0h-0zM26.631 25.873h7.119v3.267h0.102c0.99-1.879 3.413-3.86 7.027-3.86 7.52 0 8.909 4.948 8.909 11.384v13.106h-7.425v-11.621c0-2.771-0.048-6.336-3.86-6.336-3.864 0-4.453 3.020-4.453 6.138v11.819h-7.418v-23.896z"></path>
    </symbol>
    <symbol id="messenger" viewBox="0 0 64 64">
      <path d="M32 8.765c-12.703 0-23 9.63-23 21.508 0 6.758 3.332 12.787 8.544 16.73v8.231l7.849-4.354c1.972 0.571 4.238 0.9 6.58 0.9 0.009 0 0.019 0 0.028 0h-0.002c12.703 0 23-9.629 23-21.508s-10.297-21.508-23-21.508zM34.422 37.607l-5.949-6.18-11.456 6.335 12.56-13.328 5.949 6.18 11.455-6.335-12.559 13.329z"></path>
    </symbol>
    <symbol id="pinterest" viewBox="0 0 64 64">
      <path d="M45.873 25.872c0 8.078-4.487 14.11-11.108 14.11-2.222 0-4.313-1.203-5.030-2.568 0 0-1.195 4.745-1.448 5.66-0.89 3.233-3.512 6.47-3.715 6.737-0.142 0.182-0.457 0.125-0.49-0.117-0.058-0.413-0.725-4.495 0.063-7.825 0.395-1.67 2.648-11.218 2.648-11.218s-0.657-1.315-0.657-3.258c0-3.052 1.77-5.329 3.97-5.329 1.872 0 2.778 1.405 2.778 3.090 0 1.884-1.198 4.698-1.818 7.306-0.517 2.185 1.095 3.965 3.25 3.965 3.9 0 6.525-5.010 6.525-10.945 0-4.511-3.037-7.89-8.565-7.89-6.242 0-10.135 4.657-10.135 9.86 0 1.793 0.53 3.058 1.358 4.036 0.38 0.45 0.435 0.632 0.297 1.149-0.102 0.38-0.325 1.29-0.422 1.653-0.135 0.52-0.558 0.708-1.030 0.515-2.875-1.175-4.215-4.325-4.215-7.865 0-5.849 4.933-12.86 14.713-12.86 7.862 0 13.032 5.686 13.032 11.793z"></path>
    </symbol>
    <symbol id="print" viewBox="0 0 64 64">
      <path d="M14 22h38v-12c0-2.2-1.8-4-4-4h-30c-2.2 0-4 1.8-4 4v12zM12 54h-2c-3.4 0-6-2.6-6-6v-18c0-3.4 2.6-6 6-6h46c3.4 0 6 2.6 6 6v18c0 3.4-2.6 6-6 6h-2v-16h-42v16zM14 40h38v16c0 2.2-1.8 4-4 4h-30c-2.2 0-4-1.8-4-4v-16zM50 34c1.2 0 2-0.8 2-2s-0.8-2-2-2-2 0.8-2 2c0 1.2 0.8 2 2 2v0zM18 46v2h30v-2h-30zM18 52v2h30v-2h-30z"></path>
    </symbol>
    <symbol id="reddit" viewBox="0 0 64 64">
      <path d="M29.37 25.258c-0.001-1.233-1.001-2.232-2.233-2.233h-0c-1.233 0.002-2.231 1.001-2.232 2.233v0c0.001 1.232 1 2.231 2.232 2.233h0c1.233-0.001 2.232-1 2.233-2.232v-0zM36.861 23.023c-1.233 0.001-2.233 1.001-2.234 2.234v0c0.001 1.233 1.001 2.232 2.234 2.233h0c1.233-0.001 2.233-1 2.235-2.233v-0c-0.001-1.234-1.001-2.233-2.235-2.235h-0zM36.33 30.723c-0.843 0.842-2.272 1.252-4.33 1.252-2.059 0-3.487-0.41-4.329-1.252-0.112-0.112-0.267-0.182-0.439-0.182-0.343 0-0.62 0.278-0.62 0.62 0 0.171 0.069 0.326 0.182 0.439v0c1.087 1.086 2.801 1.615 5.206 1.615s4.119-0.529 5.207-1.615c0.112-0.112 0.182-0.267 0.182-0.439 0-0.343-0.278-0.62-0.62-0.62-0.171 0-0.326 0.069-0.438 0.181v0z"></path>
      <path d="M48.13 22.825c0-2.023-1.645-3.668-3.667-3.668-0.933 0-1.785 0.352-2.432 0.927-2.488-1.602-5.705-2.54-9.149-2.677l1.89-5.977 5.142 1.21c0.012 1.66 1.359 3.002 3.020 3.004h0c1.669-0.002 3.021-1.354 3.023-3.022v-0c-0.002-1.669-1.355-3.021-3.023-3.022h-0c-1.235 0.002-2.297 0.743-2.766 1.806l-0.008 0.019-5.664-1.334c-0.043-0.011-0.092-0.017-0.143-0.017-0.276 0-0.509 0.18-0.59 0.429l-0.001 0.004-2.178 6.887c-3.619 0.067-7.015 1.015-9.613 2.69-0.642-0.576-1.495-0.927-2.431-0.927-0.001 0-0.001 0-0.002 0h0c-2.022 0-3.668 1.645-3.668 3.668 0.001 1.332 0.712 2.498 1.775 3.139l0.016 0.009c-0.055 0.343-0.083 0.692-0.083 1.042 0 2.622 1.535 5.068 4.324 6.889 0.887 0.579 1.87 1.071 2.923 1.473-2.056 0.98-3.511 3.366-3.511 6.148 0 3.142 1.858 5.778 4.34 6.455 0.194 0.605 0.409 1.181 0.644 1.723-0.103-0.008-0.224-0.014-0.345-0.014h-0.001c-2.232 0-4.047 1.525-4.047 3.398 0 0.28 0.049 0.57 0.151 0.885 0.083 0.251 0.316 0.429 0.59 0.429 0 0 0 0 0 0h18.617c0.272 0 0.512-0.176 0.593-0.435 0.101-0.325 0.148-0.603 0.148-0.879 0-1.873-1.816-3.398-4.050-3.398-0.084 0-0.166 0.002-0.248 0.007 0.234-0.54 0.449-1.114 0.641-1.715 2.483-0.676 4.34-3.313 4.34-6.455 0-2.782-1.456-5.168-3.511-6.148 1.053-0.402 2.036-0.894 2.922-1.472 2.788-1.82 4.325-4.267 4.325-6.889 0-0.351-0.029-0.698-0.083-1.042 1.079-0.651 1.789-1.817 1.79-3.148v-0zM44.717 12.623c0 0.982-0.8 1.781-1.783 1.781-0.983-0.001-1.78-0.798-1.78-1.781v-0c0.001-0.983 0.797-1.78 1.78-1.782h0c0.983 0 1.783 0.8 1.783 1.782zM40.763 53.086c0 0.024-0.001 0.048-0.002 0.074h-5.255c0.559-0.577 1.072-1.288 1.533-2.11 0.275-0.077 0.59-0.121 0.915-0.121h0c1.549 0 2.809 0.968 2.809 2.157zM25.951 50.928c0.363 0 0.709 0.053 1.026 0.15 0.456 0.81 0.965 1.511 1.516 2.081h-5.347c-0.002-0.022-0.002-0.047-0.003-0.073v-0c0-1.19 1.259-2.157 2.807-2.157zM33.535 53.16h-3.070c-2.758-1.578-4.745-7.083-4.745-13.203 0-1.446 0.111-2.847 0.314-4.168 1.849 0.559 3.875 0.854 5.967 0.854s4.118-0.296 5.969-0.855c0.199 1.245 0.313 2.681 0.313 4.144 0 0.008 0 0.017 0 0.025v-0.001c0 6.12-1.987 11.625-4.746 13.203zM24.628 36.941c-0.096 0.903-0.15 1.951-0.15 3.012 0 0.001 0 0.002 0 0.003v-0c0 2.325 0.27 4.55 0.756 6.537-1.573-0.813-2.681-2.733-2.681-4.968 0-1.935 0.831-3.634 2.075-4.583zM38.764 46.493c0.487-1.987 0.757-4.212 0.757-6.538 0-1.036-0.053-2.043-0.15-3.015 1.243 0.949 2.075 2.648 2.075 4.584 0 2.236-1.108 4.157-2.681 4.969zM32 35.403c-7.268 0-13.181-3.762-13.181-8.387s5.913-8.387 13.181-8.387 13.181 3.762 13.181 8.386c0 4.625-5.913 8.388-13.181 8.388zM19.538 20.398c0.514 0 0.991 0.162 1.384 0.435-1.416 1.128-2.41 2.444-2.928 3.861-0.541-0.447-0.883-1.118-0.883-1.869 0-0 0-0 0-0v0c0.002-1.34 1.087-2.425 2.426-2.427h0zM43.078 20.833c0.385-0.272 0.864-0.436 1.381-0.436 0.001 0 0.002 0 0.004 0h-0c1.34 0.002 2.425 1.087 2.426 2.427v0c0 0.752-0.345 1.424-0.883 1.869-0.518-1.418-1.511-2.732-2.928-3.86z"></path>
    </symbol>
    <symbol id="tumblr" viewBox="0 0 64 64">
      <path d="M36.813 51.2c3.843 0 7.65-1.368 8.909-3.025l0.252-0.332-2.382-7.060c-0.022-0.064-0.082-0.109-0.152-0.109-0 0-0.001 0-0.001 0h-5.32c-0.001 0-0.002 0-0.003 0-0.072 0-0.133-0.049-0.152-0.115l-0-0.001c-0.062-0.235-0.099-0.523-0.105-0.879v-8.633c0-0.089 0.072-0.16 0.161-0.16h6.26c0.089 0 0.161-0.072 0.161-0.161v0-8.833c-0-0.089-0.072-0.16-0.161-0.16 0 0 0 0 0 0h-6.233c0 0 0 0 0 0-0.088 0-0.16-0.072-0.16-0.16 0-0 0-0 0-0v0-8.61c-0.001-0.088-0.072-0.16-0.161-0.16-0 0-0 0-0.001 0v0h-10.931c-0.942 0.016-1.712 0.73-1.815 1.647l-0.001 0.008c-0.546 4.443-2.584 7.11-6.415 8.39l-0.427 0.142c-0.064 0.022-0.11 0.082-0.11 0.152v7.585c0 0.088 0.073 0.16 0.161 0.16h3.912v9.341c0 7.457 5.165 10.975 14.713 10.975zM44.134 47.596c-1.199 1.154-3.66 2.010-6.019 2.050-0.089 0.002-0.176 0.002-0.264 0.002h-0.001c-7.758-0.001-9.828-5.922-9.828-9.422v-10.752c0-0.089-0.072-0.16-0.16-0.16v0h-3.752c-0 0-0 0-0 0-0.088 0-0.16-0.072-0.16-0.16 0-0 0-0 0-0v0-4.898c0-0.066 0.041-0.124 0.102-0.148 4.009-1.561 6.248-4.662 6.838-9.459 0.032-0.267 0.253-0.274 0.255-0.274h5.008c0.089 0 0.16 0.072 0.16 0.161v8.61c0 0 0 0 0 0 0 0.088 0.072 0.16 0.16 0.16 0 0 0 0 0.001 0v0h6.233c0 0 0 0 0 0 0.088 0 0.16 0.072 0.16 0.16 0 0 0 0.001 0 0.001v-0 5.688c0 0 0 0 0 0 0 0.088-0.072 0.16-0.16 0.16 0 0 0 0 0 0h-6.26c-0 0-0.001 0-0.001 0-0.088 0-0.16 0.072-0.16 0.16 0 0 0 0 0 0v0 10.22c0.038 2.301 1.151 3.468 3.31 3.468 0.87 0 1.867-0.203 2.777-0.55 0.017-0.007 0.037-0.011 0.058-0.011 0.069 0 0.128 0.045 0.15 0.107l0 0.001 1.593 4.72c0.020 0.060 0.006 0.126-0.040 0.169z"></path>
    </symbol>
    <symbol id="x" viewBox="0 0 128 128">
      <path d="M16.4,16l37.2,52.9L16,112h8.5l32.7-37.6L83.5,112H112L72.9,56.2L107.8,16h-8.5L69.1,50.7 L44.7,16H16.4z M28.4,22.6h13.1l58.2,82.7H86.4L28.4,22.6z"></path>
    </symbol>
    <symbol id="whatsapp" viewBox="0 0 64 64">
      <path d="M14.080 50.007l2.532-9.248c-1.498-2.553-2.383-5.623-2.383-8.899 0-0.008 0-0.015 0-0.023v0.001c0.004-9.84 8.009-17.845 17.845-17.845 4.774 0.002 9.255 1.861 12.623 5.234 3.37 3.372 5.224 7.856 5.222 12.625-0.004 9.839-8.010 17.845-17.845 17.845 0 0 0.001 0 0 0h-0.008c-3.126-0-6.065-0.805-8.619-2.219l0.091 0.046-9.46 2.482zM23.978 44.294l0.542 0.322c2.158 1.299 4.763 2.068 7.548 2.068 0 0 0.001 0 0.001 0h0.006c8.175 0 14.829-6.654 14.832-14.832 0.002-3.963-1.54-7.689-4.34-10.493s-6.525-4.348-10.486-4.35c-8.181 0-14.835 6.654-14.838 14.831 0 0.007 0 0.015 0 0.023 0 2.918 0.845 5.638 2.303 7.93l-0.036-0.060 0.353 0.562-1.498 5.473 5.613-1.472z"></path>
      <path d="M41.065 36.095c-0.111-0.186-0.408-0.297-0.854-0.521-0.447-0.223-2.639-1.301-3.047-1.45s-0.706-0.224-1.004 0.222c-0.297 0.447-1.151 1.452-1.411 1.748s-0.52 0.335-0.967 0.112c-0.446-0.223-1.882-0.694-3.585-2.213-1.326-1.182-2.221-2.642-2.48-3.088s-0.028-0.688 0.195-0.91c0.201-0.2 0.446-0.521 0.669-0.781s0.297-0.447 0.446-0.744c0.148-0.297 0.074-0.558-0.038-0.781s-1.003-2.418-1.375-3.311c-0.361-0.869-0.73-0.752-1.003-0.765-0.229-0.010-0.498-0.016-0.768-0.016-0.031 0-0.061 0-0.092 0h0.005c-0.297 0-0.78 0.112-1.189 0.558s-1.561 1.525-1.561 3.72c0 2.195 1.598 4.315 1.82 4.613s3.144 4.801 7.617 6.733c0.656 0.296 1.498 0.616 2.361 0.89l0.181 0.050c1.068 0.339 2.040 0.291 2.808 0.176 0.857-0.129 2.638-1.078 3.010-2.12s0.371-1.935 0.26-2.121z"></path>
    </symbol>
    <symbol id="xing" viewBox="-8 -8 80 80">
      <path d="M12.249 17.201l5.083 8.132-7.749 13.284c-0.703 1.204 0.165 2.716 1.559 2.716h6.001c0.949 0 1.827-0.504 2.304-1.324l7.74-13.285c0.499-0.855 0.481-1.916-0.043-2.756l-5.031-8.048c-0.485-0.78-1.34-1.253-2.26-1.253h-6.2c-1.301 0-2.095 1.432-1.404 2.535zM43.241 6.729l-15.9 29.333c-0.437 0.807-0.429 1.783 0.023 2.581l10.536 18.667c0.472 0.837 1.36 1.356 2.321 1.356h5.963c1.387 0 2.261-1.493 1.584-2.703l-10.436-18.631 15.775-29.123c0.703-1.299-0.237-2.877-1.715-2.877h-5.807c-0.977 0-1.877 0.536-2.344 1.396z"></path>
    </symbol>
  </defs>
</svg>
