<svg width="163" height="48" viewBox="0 0 163 48" fill="none" xmlns="http://www.w3.org/2000/svg">
<g clip-path="url(#clip0_1_5)">
<g clip-path="url(#clip1_1_5)">
<path d="M2.41669 1.46584H12.0834L18.56 33.825C18.781 34.9376 19.3863 35.9371 20.2699 36.6484C21.1535 37.3597 22.2592 37.7376 23.3934 37.7158H46.8833C48.0175 37.7376 49.1232 37.3597 50.0068 36.6484C50.8904 35.9371 51.4957 34.9376 51.7167 33.825L55.5834 13.5492H14.5" stroke="#E0570A" stroke-width="4" stroke-linecap="round" stroke-linejoin="round"/>
<circle cx="24.8906" cy="43.907" r="3.9726" fill="black"/>
<circle cx="43.9071" cy="43.907" r="3.9726" fill="black"/>
</g>
<path d="M59.7598 47V-0.180002H63.6098V29.78L80.6898 13.82H85.3098L71.6598 26.77L86.0798 47H82.0198L69.1398 28.94L63.6098 34.12V47H59.7598ZM100.125 47.7C98.0246 47.7 96.0879 47.3733 94.3146 46.72C92.5879 46.0667 91.1879 45.04 90.1146 43.64C89.0879 42.1933 88.5746 40.3733 88.5746 38.18C88.5746 35.24 89.5079 32.86 91.3746 31.04C93.2413 29.1733 96.4146 28.24 100.895 28.24H113.285V25.09C113.285 22.99 113.005 21.31 112.445 20.05C111.885 18.7433 110.858 17.81 109.365 17.25C107.918 16.69 105.771 16.41 102.925 16.41C101.011 16.41 99.1679 16.5733 97.3946 16.9C95.6213 17.2267 93.9413 17.67 92.3546 18.23V14.94C93.8013 14.38 95.4813 13.9367 97.3946 13.61C99.3546 13.2833 101.431 13.12 103.625 13.12C108.198 13.12 111.558 14.0533 113.705 15.92C115.898 17.74 116.995 20.7733 116.995 25.02V47H113.845L113.495 42.87C111.955 44.5033 110.135 45.7167 108.035 46.51C105.935 47.3033 103.298 47.7 100.125 47.7ZM101.105 44.48C103.765 44.48 106.098 44.06 108.105 43.22C110.111 42.3333 111.838 41.0267 113.285 39.3V31.32H101.035C97.7679 31.32 95.5046 31.9033 94.2446 33.07C92.9846 34.2367 92.3546 35.94 92.3546 38.18C92.3546 40.4667 93.1246 42.1 94.6646 43.08C96.2513 44.0133 98.3979 44.48 101.105 44.48ZM127.162 47V13.82H130.522L130.942 18.44C132.669 17.2267 134.629 16.1533 136.822 15.22C139.062 14.2867 141.255 13.5867 143.402 13.12V16.27C142.049 16.5967 140.579 17.04 138.992 17.6C137.452 18.16 135.959 18.79 134.512 19.49C133.112 20.1433 131.945 20.82 131.012 21.52V47H127.162ZM162.159 47.7C159.219 47.7 156.956 46.8833 155.369 45.25C153.783 43.6167 152.989 41.33 152.989 38.39V17.04H147.809V13.82H152.989V5.14L156.839 3.88V13.82H166.429L166.219 17.04H156.839V38.25C156.839 40.3967 157.329 41.9833 158.309 43.01C159.336 44.0367 160.993 44.55 163.279 44.55C163.886 44.55 164.516 44.5033 165.169 44.41C165.869 44.27 166.616 44.06 167.409 43.78V46.86C165.869 47.42 164.119 47.7 162.159 47.7Z" fill="black"/>
</g>
<defs>
<clipPath id="clip0_1_5">
<rect width="163" height="48" fill="white"/>
</clipPath>
<clipPath id="clip1_1_5">
<rect width="58" height="58" fill="white"/>
</clipPath>
</defs>
</svg>
